<svg width="95" height="20" viewBox="0 0 95 20" fill="none" xmlns="http://www.w3.org/2000/svg">
<path d="M10 0.5H82.6964C83.6397 0.5 84.5139 0.994949 84.9992 1.80386C85.4278 2.51809 86.0856 3.0661 86.8655 3.35856L88.5746 3.99947C89.2391 4.24866 89.7679 4.76614 90.0315 5.42507C90.2992 6.09431 90.2679 6.84609 89.9456 7.49079L89.5615 8.259C88.6442 10.0936 89.6617 12.3058 91.6516 12.8033C92.0395 12.9003 92.3937 13.1008 92.6765 13.3836L92.9184 13.6255C95.0862 15.7933 93.5508 19.5 90.4851 19.5H10C4.7533 19.5 0.5 15.2467 0.5 10C0.5 4.75329 4.75329 0.5 10 0.5Z" stroke="#20C859"/>
</svg>
