<svg width="12" height="10" viewBox="0 0 12 10" fill="none" xmlns="http://www.w3.org/2000/svg">
<path d="M4.9134 0.656018C4.95942 0.196179 5.46202 -0.182682 5.96886 0.0937999C7.02251 0.683204 8.01682 1.35474 8.97842 2.07255C10.1653 2.96794 11.1178 3.81185 11.7924 4.4857C12.0849 4.77895 12.0576 5.24226 11.7779 5.52222C11.1099 6.18229 10.4033 6.80566 9.66148 7.38934C8.48793 8.30728 7.2726 9.19688 5.94948 9.91007C5.50077 10.1518 5.01452 9.87536 4.92793 9.44676L4.91763 9.3814L4.78018 7.31414C3.6805 7.33612 2.61596 7.69705 1.76456 8.36859L1.60409 8.497L1.52658 8.55715L1.37701 8.66821L1.30434 8.71911L1.16507 8.81166C1.12177 8.83876 1.07776 8.8648 1.03306 8.88974L0.908318 8.95395C0.323361 9.22985 0 8.98576 0 7.8914C0 5.34407 1.96499 3.07726 4.62152 2.73368L4.77836 2.71575L4.9134 0.656018ZM6.06938 1.5086L5.95312 3.51686C5.94919 3.58551 5.91979 3.65058 5.87019 3.70039C5.82058 3.75021 5.75402 3.78152 5.68244 3.78871L4.85829 3.87084C3.00229 4.08254 1.52961 5.46842 1.25651 7.28002C2.16421 6.64066 3.24156 6.25749 4.36598 6.17409L4.60638 6.16079L5.63823 6.13996C5.71672 6.13835 5.7928 6.16591 5.85041 6.21685C5.90803 6.26778 5.94268 6.3381 5.94706 6.41297L6.06635 8.49295C7.03704 7.90239 7.96232 7.22275 8.89062 6.49742C9.49 6.02151 10.0672 5.5207 10.6207 4.99644L10.4644 4.84836L10.1277 4.54007C9.51885 3.99507 8.88568 3.47536 8.22997 2.9824C7.53471 2.45861 6.81369 1.96679 6.06938 1.5086Z" fill="white"/>
</svg>
