<svg width="12" height="14" viewBox="0 0 12 14" fill="none" xmlns="http://www.w3.org/2000/svg">
<path d="M8.99971 1H4.19988C3.35122 1 2.53732 1.29176 1.93722 1.81109C1.33713 2.33042 1 3.03479 1 3.76923V9.3077" stroke="white" stroke-width="1.1"/>
<path d="M4 6.9648C4 6.11557 4.00078 5.53758 4.05522 5.09876C4.10811 4.67415 4.20144 4.46752 4.32121 4.3248C4.40417 4.22635 4.50092 4.13826 4.60898 4.06279C4.76453 3.95344 4.99085 3.86823 5.45672 3.81995C5.9366 3.77024 6.56891 3.76953 7.49987 3.76953C8.43084 3.76953 9.06315 3.77024 9.5438 3.81995C10.0089 3.86823 10.2352 3.95344 10.3915 4.06279C10.4994 4.13853 10.5951 4.2261 10.6785 4.32551C10.7983 4.46752 10.8916 4.67415 10.9445 5.09947C10.999 5.53829 10.9997 6.11557 10.9997 6.9648V9.80504C10.9997 10.6543 10.9982 11.2323 10.9445 11.6711C10.8916 12.0957 10.7983 12.3023 10.6785 12.445C10.5956 12.5435 10.4997 12.6308 10.3908 12.7071C10.2352 12.8164 10.0089 12.9016 9.54302 12.9499C9.06237 12.9996 8.43006 13.0003 7.49987 13.0003C6.56968 13.0003 5.9366 12.9989 5.45595 12.9499C4.99085 12.9016 4.76453 12.8164 4.6082 12.7071C4.50036 12.6313 4.40388 12.543 4.32121 12.4443C4.20144 12.3023 4.10811 12.0957 4.05522 11.6704C4.00078 11.2323 4 10.655 4 9.80504V6.9648Z" stroke="white" stroke-width="1.1"/>
</svg>
