<svg width="100" height="20" viewBox="0 0 100 20" fill="none" xmlns="http://www.w3.org/2000/svg">
<rect x="0.5" y="0.5" width="99" height="19" rx="9.5" fill="#1B1B1B" stroke="#DDDCDC"/>
<path d="M10 20C7.34783 20 4.8043 18.9464 2.92893 17.0711C1.05357 15.1957 -7.37783e-08 12.6522 0 10C7.37783e-08 7.34784 1.05357 4.8043 2.92893 2.92893C4.8043 1.05357 7.34784 -3.16267e-08 10 0V0.99706C7.61227 0.99706 5.32234 1.94558 3.63396 3.63396C1.94558 5.32234 0.99706 7.61227 0.99706 10C0.99706 12.3877 1.94558 14.6777 3.63396 16.366C5.32234 18.0544 7.61227 19.0029 10 19.0029V20Z" fill="#20C859"/>
</svg>
